<?xml version="1.0" encoding="UTF-8" standalone="no"?>
<!DOCTYPE svg PUBLIC "-//W3C//DTD SVG 1.1//EN" "http://www.w3.org/Graphics/SVG/1.1/DTD/svg11.dtd">
<svg width="100%" height="100%" viewBox="0 0 5279 4977" version="1.1" xmlns="http://www.w3.org/2000/svg" xmlns:xlink="http://www.w3.org/1999/xlink" xml:space="preserve" xmlns:serif="http://www.serif.com/" style="fill-rule:evenodd;clip-rule:evenodd;stroke-linejoin:round;stroke-miterlimit:2;">
    <g transform="matrix(1.09098,0,0,1.20064,-682.177,-883.74)">
        <rect id="Artboard1" x="625.289" y="736.055" width="4837.95" height="4144.77" style="fill:none;"/>
        <clipPath id="_clip1">
            <rect id="Artboard11" serif:id="Artboard1" x="625.289" y="736.055" width="4837.95" height="4144.77"/>
        </clipPath>
        <g clip-path="url(#_clip1)">
            <g transform="matrix(0.91677,0,0,0.832995,355.068,364.99)">
                <path d="M3797.94,557.186C1246.87,3607.46 1246.87,3607.46 3797.94,557.186ZM5566.79,1966.37C5590.37,2288.69 5539.27,2624.77 5413.49,2974.61C5193.37,3576.01 4808.15,4104.71 4257.85,4560.67L4110.45,4383.78C4633.24,3955.33 4996.83,3460.05 5201.24,2897.95C5319.16,2575.63 5366.33,2270.99 5342.74,1984.05C5323.09,1708.9 5240.54,1469.12 5095.11,1264.72C4831.74,887.366 4420.98,690.828 3862.81,675.105L3780.26,934.535C4035.76,962.051 4259.81,1038.7 4452.42,1164.49C4696.13,1329.58 4865.15,1553.63 4959.49,1836.65L4534.97,1978.15C4472.07,1793.41 4363,1647.97 4207.73,1541.84C4052.47,1435.71 3860.84,1378.71 3632.86,1370.85L3220.13,2626.73C3243.71,2650.31 3263.36,2675.86 3279.09,2703.38C3314.46,2778.06 3314.46,2858.64 3279.09,2945.12C3247.64,3035.53 3188.68,3112.18 3102.2,3175.07C3015.73,3237.96 2927.28,3269.41 2836.88,3269.41C2813.29,3269.41 2789.71,3265.48 2766.12,3257.62L1504.34,4153.83C1582.96,4236.38 1677.3,4303.2 1787.36,4354.3C1897.42,4405.4 2023.2,4436.85 2164.71,4448.64L2129.34,4890.85C1637.99,4851.54 1274.39,4649.11 1038.55,4283.55C912.761,4087.01 842.99,3862.95 829.232,3611.39C815.475,3359.82 855.765,3100.39 950.103,2833.1C1056.23,2542.22 1219.36,2267.07 1439.48,2007.63L1781.46,2296.55C1596.71,2516.67 1461.1,2746.62 1374.63,2986.39C1237.05,3359.82 1235.08,3682.14 1368.73,3953.36L2553.85,3004.08C2553.85,2960.85 2561.71,2917.61 2577.43,2874.37C2624.6,2740.72 2716.98,2644.42 2854.55,2585.46L3332.14,1382.65C2848.66,1453.4 2402.52,1681.38 1993.71,2066.6L1687.11,1742.31C1954.4,1490.74 2249.21,1292.24 2571.53,1146.8C2889.93,1005.29 3206.35,930.609 3520.81,922.747L3615.15,681.005C3190.63,712.451 2764.14,848.063 2335.69,1087.84L2223.67,893.266C2754.32,594.528 3279.08,445.159 3797.94,445.159C4120.26,445.159 4409.17,505.103 4664.67,624.992C4920.17,744.88 5126.53,916.851 5283.77,1140.9C5448.86,1376.75 5543.2,1651.9 5566.78,1966.37L5566.79,1966.37ZM3072.72,2874.37C3084.51,2842.93 3084.51,2817.38 3072.72,2797.72C3068.79,2789.86 3060.93,2783.97 3049.14,2780.03C3041.27,2776.1 3031.45,2774.14 3019.66,2774.14C3003.93,2774.14 2988.21,2776.1 2972.49,2780.03C2878.15,2807.55 2815.26,2862.58 2783.81,2945.13C2772.02,2980.5 2772.02,3008.02 2783.81,3027.67C2791.67,3039.47 2809.36,3045.36 2836.87,3045.36C2884.04,3045.36 2930.23,3027.67 2975.43,2992.3C3020.64,2956.92 3053.07,2917.61 3072.72,2874.37ZM2070.37,5197.45C2648.19,5197.45 3224.05,5004.85 3797.94,4619.63L3921.76,4808.31C3308.56,5217.11 2691.43,5421.51 2070.37,5421.51C1748.05,5421.51 1459.14,5361.56 1203.64,5241.67C948.137,5121.79 741.772,4951.78 584.541,4731.66C419.449,4491.88 325.111,4214.76 301.526,3900.3C274.011,3581.91 325.111,3247.79 454.826,2897.95C580.61,2548.11 771.252,2215.96 1026.75,1901.5C1270.46,1598.83 1555.44,1333.51 1881.69,1105.52L2011.41,1288.3C1700.88,1504.5 1429.66,1756.06 1197.74,2043.01C961.895,2337.82 783.045,2648.35 661.191,2974.6C547.199,3292.99 501.995,3595.66 525.58,3882.61C545.233,4157.76 625.814,4397.54 767.322,4601.94C904.898,4794.55 1084.73,4941.95 1306.82,5044.15C1528.91,5146.35 1783.42,5197.45 2070.37,5197.45L2070.37,5197.45ZM4906.42,2986.4C4721.67,3489.54 4393.45,3921.93 3921.76,4283.55C3454,4649.11 2962.66,4851.55 2447.72,4890.86L2412.35,4448.65C2840.8,4413.27 3255.5,4240.32 3656.44,3929.78C4057.38,3619.25 4332.53,3253.69 4481.9,2833.1C4568.37,2601.19 4599.82,2383.03 4576.24,2178.63L5018.45,2131.46C5049.89,2402.68 5012.55,2687.67 4906.42,2986.4L4906.42,2986.4Z" style="fill-rule:nonzero;"/>
            </g>
        </g>
    </g>
</svg>
